<?xml version="1.0" encoding="UTF-8"?>
<svg version="1.1" xmlns="http://www.w3.org/2000/svg" width="198" height="192">
<path d="M0 0 C10.94799138 9.07541549 17.77006484 20.28016781 23.64575195 33.05175781 C24.22583008 32.2203125 24.22583008 32.2203125 24.81762695 31.37207031 C25.3384082 30.64761719 25.85918945 29.92316406 26.39575195 29.17675781 C26.9062207 28.45746094 27.41668945 27.73816406 27.94262695 26.99707031 C30.3300515 24.27014961 32.31595033 23.22921834 35.8996582 22.75097656 C36.66149414 22.74710938 37.42333008 22.74324219 38.20825195 22.73925781 C38.97266602 22.7225 39.73708008 22.70574219 40.5246582 22.68847656 C43.21068393 23.14851412 43.97452229 23.93172478 45.64575195 26.05175781 C45.40526404 33.20273674 43.56675216 39.96498871 41.77075195 46.86425781 C41.3859668 48.36956055 41.3859668 48.36956055 40.9934082 49.90527344 C40.47718603 51.92476571 39.95670928 53.94317542 39.43188477 55.96044922 C38.88303926 58.11867338 38.35821228 60.28308545 37.85180664 62.45166016 C37.46750488 64.08482178 37.46750488 64.08482178 37.07543945 65.75097656 C36.84840332 66.74315186 36.62136719 67.73532715 36.38745117 68.75756836 C36.14269043 69.51465088 35.89792969 70.2717334 35.64575195 71.05175781 C34.65575195 71.54675781 34.65575195 71.54675781 33.64575195 72.05175781 C33.52458008 72.87160156 33.4034082 73.69144531 33.27856445 74.53613281 C32.43940808 79.19811269 30.56940846 83.05488032 28.52075195 87.30175781 C27.90852783 88.57418335 27.90852783 88.57418335 27.28393555 89.87231445 C14.70583896 115.5084937 -5.67738529 128.36652475 -31.3659668 138.62988281 C-34.43926736 139.9525891 -34.43926736 139.9525891 -37.0300293 142.19238281 C-39.35424805 144.05175781 -39.35424805 144.05175781 -42.85424805 144.55175781 C-46.35424805 144.05175781 -46.35424805 144.05175781 -48.5769043 142.11035156 C-52.02281741 139.5562078 -55.15549585 139.13851892 -59.29174805 138.61425781 C-78.34058847 135.68933909 -93.90423312 127.66047498 -107.35424805 114.05175781 C-108.02198242 113.39433594 -108.6897168 112.73691406 -109.37768555 112.05957031 C-124.05436964 96.58596219 -128.84719756 75.92577875 -128.5612793 55.22753906 C-128.02731658 37.318495 -121.39717886 21.93792599 -110.35424805 8.05175781 C-109.69424805 7.06175781 -109.03424805 6.07175781 -108.35424805 5.05175781 C-107.69424805 5.05175781 -107.03424805 5.05175781 -106.35424805 5.05175781 C-106.35424805 4.39175781 -106.35424805 3.73175781 -106.35424805 3.05175781 C-105.69424805 3.05175781 -105.03424805 3.05175781 -104.35424805 3.05175781 C-104.35424805 2.39175781 -104.35424805 1.73175781 -104.35424805 1.05175781 C-75.09669885 -24.51980093 -30.01094487 -23.50135965 0 0 Z " fill="#F9FDFD" transform="translate(145.354248046875,32.9482421875)"/>
<path d="M0 0 C10.94799138 9.07541549 17.77006484 20.28016781 23.64575195 33.05175781 C24.22583008 32.2203125 24.22583008 32.2203125 24.81762695 31.37207031 C25.3384082 30.64761719 25.85918945 29.92316406 26.39575195 29.17675781 C26.9062207 28.45746094 27.41668945 27.73816406 27.94262695 26.99707031 C30.3300515 24.27014961 32.31595033 23.22921834 35.8996582 22.75097656 C36.66149414 22.74710938 37.42333008 22.74324219 38.20825195 22.73925781 C38.97266602 22.7225 39.73708008 22.70574219 40.5246582 22.68847656 C43.21068393 23.14851412 43.97452229 23.93172478 45.64575195 26.05175781 C45.40526404 33.20273674 43.56675216 39.96498871 41.77075195 46.86425781 C41.3859668 48.36956055 41.3859668 48.36956055 40.9934082 49.90527344 C40.47718603 51.92476571 39.95670928 53.94317542 39.43188477 55.96044922 C38.88303926 58.11867338 38.35821228 60.28308545 37.85180664 62.45166016 C37.46750488 64.08482178 37.46750488 64.08482178 37.07543945 65.75097656 C36.84840332 66.74315186 36.62136719 67.73532715 36.38745117 68.75756836 C36.14269043 69.51465088 35.89792969 70.2717334 35.64575195 71.05175781 C34.65575195 71.54675781 34.65575195 71.54675781 33.64575195 72.05175781 C33.52458008 72.87160156 33.4034082 73.69144531 33.27856445 74.53613281 C32.43940808 79.19811269 30.56940846 83.05488032 28.52075195 87.30175781 C27.90852783 88.57418335 27.90852783 88.57418335 27.28393555 89.87231445 C14.70583896 115.5084937 -5.67738529 128.36652475 -31.3659668 138.62988281 C-34.43926736 139.9525891 -34.43926736 139.9525891 -37.0300293 142.19238281 C-39.35424805 144.05175781 -39.35424805 144.05175781 -42.85424805 144.55175781 C-46.35424805 144.05175781 -46.35424805 144.05175781 -48.5769043 142.11035156 C-52.02281741 139.5562078 -55.15549585 139.13851892 -59.29174805 138.61425781 C-78.34058847 135.68933909 -93.90423312 127.66047498 -107.35424805 114.05175781 C-108.02198242 113.39433594 -108.6897168 112.73691406 -109.37768555 112.05957031 C-124.05436964 96.58596219 -128.84719756 75.92577875 -128.5612793 55.22753906 C-128.02731658 37.318495 -121.39717886 21.93792599 -110.35424805 8.05175781 C-109.69424805 7.06175781 -109.03424805 6.07175781 -108.35424805 5.05175781 C-107.69424805 5.05175781 -107.03424805 5.05175781 -106.35424805 5.05175781 C-106.35424805 4.39175781 -106.35424805 3.73175781 -106.35424805 3.05175781 C-105.69424805 3.05175781 -105.03424805 3.05175781 -104.35424805 3.05175781 C-104.35424805 2.39175781 -104.35424805 1.73175781 -104.35424805 1.05175781 C-75.09669885 -24.51980093 -30.01094487 -23.50135965 0 0 Z M-99.35424805 8.05175781 C-99.99104492 8.60605469 -100.6278418 9.16035156 -101.28393555 9.73144531 C-112.32163954 19.98424591 -120.11757678 36.14466927 -120.82299805 51.22363281 C-120.85718051 53.41609944 -120.86692259 55.60906137 -120.85424805 57.80175781 C-120.84852783 58.95119873 -120.84280762 60.10063965 -120.83691406 61.28491211 C-120.64968604 70.1943184 -119.42770578 77.03958776 -115.35424805 85.05175781 C-114.85795898 86.14101562 -114.36166992 87.23027344 -113.8503418 88.35253906 C-105.01726006 106.46567775 -89.98047912 117.32411833 -71.35424805 124.05175781 C-65.65728163 125.72602883 -60.27220173 126.30906015 -54.35424805 126.05175781 C-53.85924805 128.52675781 -53.85924805 128.52675781 -53.35424805 131.05175781 C-52.36424805 131.05175781 -51.37424805 131.05175781 -50.35424805 131.05175781 C-50.3284668 129.74722656 -50.30268555 128.44269531 -50.27612305 127.09863281 C-49.99096635 117.17232814 -49.52427181 108.23150295 -45.35424805 99.05175781 C-45.02811523 98.2925 -44.70198242 97.53324219 -44.3659668 96.75097656 C-37.1378351 81.95301967 -22.24883975 71.45165011 -8.79174805 62.73925781 C-4.43038082 59.91514151 -1.32983141 57.30259119 1.64575195 53.05175781 C2.13516476 59.8083735 1.98316793 64.66825916 -2.35424805 70.05175781 C-5.6174551 73.71882713 -9.1628822 76.91288447 -12.97924805 79.98925781 C-16.65209041 83.0734505 -19.3375722 86.69313582 -21.35424805 91.05175781 C-21.35424805 92.04175781 -21.35424805 93.03175781 -21.35424805 94.05175781 C-15.79567136 92.04989278 -11.86937398 88.77876225 -7.35424805 85.05175781 C-6.59499023 84.44074219 -5.83573242 83.82972656 -5.0534668 83.20019531 C5.14700293 74.638143 15.34887799 60.83495785 19.64575195 48.05175781 C19.81332953 44.84305548 19.81332953 44.84305548 19.64575195 42.05175781 C18.98575195 42.05175781 18.32575195 42.05175781 17.64575195 42.05175781 C16.38910218 44.95776042 15.64575195 46.84780366 15.64575195 50.05175781 C14.98575195 50.05175781 14.32575195 50.05175781 13.64575195 50.05175781 C13.72825195 48.95863281 13.81075195 47.86550781 13.89575195 46.73925781 C13.88569269 41.03565644 11.85402803 36.23830097 9.64575195 31.05175781 C9.29512695 30.21386719 8.94450195 29.37597656 8.58325195 28.51269531 C1.40507749 12.81043867 -12.78100147 -0.06990542 -28.85424805 -6.26074219 C-54.05722341 -14.54324326 -79.44943295 -9.63370508 -99.35424805 8.05175781 Z " fill="#0979C0" transform="translate(145.354248046875,32.9482421875)"/>
<path d="M0 0 C10.89 0 21.78 0 33 0 C33 10.89 33 21.78 33 33 C43.89 33 54.78 33 66 33 C66 48 66 48 63.25390625 51.1875 C61.47753906 52.16381836 61.47753906 52.16381836 59.5625 53 C58.27538948 53.68514335 56.9902308 54.37396578 55.70703125 55.06640625 C55.07490723 55.38625488 54.4427832 55.70610352 53.79150391 56.03564453 C51.23212245 57.41334373 49.0151881 59.12460805 46.75 60.9375 C46.06421875 61.48277344 45.3784375 62.02804688 44.671875 62.58984375 C42.89741797 64.0461733 42.89741797 64.0461733 41 66 C38.31160615 66.26991906 35.70858064 66.08737357 33 66 C33.165 66.94875 33.33 67.8975 33.5 68.875 C33.53046246 73.92161439 30.2402399 76.73369449 27.10546875 80.37890625 C22.60166801 85.9856786 20.25700857 92.22897429 18 99 C12.06 99 6.12 99 0 99 C0 88.11 0 77.22 0 66 C-10.23 66 -20.46 66 -31 66 C-31 55.11 -31 44.22 -31 33 C-20.77 33 -10.54 33 0 33 C0 22.11 0 11.22 0 0 Z " fill="#0CCAD7" transform="translate(75,41)"/>
<path d="M0 0 C2.4375 0.375 2.4375 0.375 5 1 C8.04184331 7.08368662 3.74821913 17.57696311 2.125 23.8125 C1.86847656 24.81603516 1.61195313 25.81957031 1.34765625 26.85351562 C0.83143408 28.87300789 0.31095733 30.89141761 -0.21386719 32.90869141 C-0.76271269 35.06691557 -1.28753967 37.23132764 -1.79394531 39.39990234 C-2.17824707 41.03306396 -2.17824707 41.03306396 -2.5703125 42.69921875 C-2.79734863 43.69139404 -3.02438477 44.68356934 -3.25830078 45.70581055 C-3.50306152 46.46289307 -3.74782227 47.21997559 -4 48 C-4.99 48.495 -4.99 48.495 -6 49 C-6.12117187 49.81984375 -6.24234375 50.6396875 -6.3671875 51.484375 C-7.20634388 56.14635487 -9.0763435 60.0031225 -11.125 64.25 C-11.73722412 65.52242554 -11.73722412 65.52242554 -12.36181641 66.82055664 C-24.93991299 92.45673589 -45.32313725 105.31476694 -71.01171875 115.578125 C-74.08501931 116.90083129 -74.08501931 116.90083129 -76.67578125 119.140625 C-79 121 -79 121 -82.5 121.5 C-86 121 -86 121 -88.22265625 119.05859375 C-91.66856937 116.50444999 -94.80124781 116.0867611 -98.9375 115.5625 C-117.98634042 112.63758128 -133.54998508 104.60871716 -147 91 C-148.00160156 90.01386719 -148.00160156 90.01386719 -149.0234375 89.0078125 C-156.67706992 80.93859823 -161.71677205 70.88670393 -165.0625 60.375 C-165.2785791 59.70017578 -165.4946582 59.02535156 -165.71728516 58.33007812 C-166.72068393 54.9169693 -167.36035908 52.37095269 -166 49 C-165.74347656 49.90878906 -165.48695313 50.81757812 -165.22265625 51.75390625 C-160.94754022 65.78837807 -154.13788445 80.13000752 -142 89 C-142 89.66 -142 90.32 -142 91 C-141.19755859 91.37511719 -141.19755859 91.37511719 -140.37890625 91.7578125 C-137.44324306 93.29072037 -134.7218383 95.08192673 -131.9375 96.875 C-126.18034645 100.48772951 -120.4851176 103.00082841 -114 105 C-113.21496094 105.27457031 -112.42992187 105.54914063 -111.62109375 105.83203125 C-104.23407009 108.30248562 -96.71149773 109.12603026 -89 110 C-88.67 111.65 -88.34 113.3 -88 115 C-85.45029144 113.54302368 -83.16091137 112.14537938 -80.9765625 110.171875 C-76.82097592 107.13971471 -72.31210549 105.42347534 -67.5625 103.5 C-61.62403886 101.08505328 -56.2299416 98.72161988 -51 95 C-50.195625 94.71125 -49.39125 94.4225 -48.5625 94.125 C-45.47339533 92.76880771 -43.39313502 90.94726338 -40.8984375 88.703125 C-39.59781198 87.53630869 -38.26753324 86.40195598 -36.9140625 85.296875 C-32.3611896 81.53948547 -29.67554155 78.25198898 -27 73 C-26 71.66666667 -25 70.33333333 -24 69 C-23.67 68.01 -23.34 67.02 -23 66 C-22.34 66 -21.68 66 -21 66 C-20.9175 65.34 -20.835 64.68 -20.75 64 C-20 61 -20 61 -18.26953125 57.82421875 C-15.23219466 51.85446927 -13.48883436 45.4096248 -11.59057617 39.01147461 C-10.94341279 36.83240897 -10.28419039 34.65728141 -9.62304688 32.48242188 C-7.34641843 24.9304313 -5.29403035 17.39413405 -3.64746094 9.67382812 C-2.80821743 6.20799294 -1.56179811 3.19796757 0 0 Z " fill="#010406" transform="translate(185,56)"/>
<path d="M0 0 C4.814674 2.50769225 4.814674 2.50769225 10 4 C10 4.66 10 5.32 10 6 C10.99 6.495 10.99 6.495 12 7 C12.99 7.99 12.99 7.99 14 9 C16.06874034 9.6425235 16.06874034 9.6425235 18 10 C18 10.66 18 11.32 18 12 C19.32 12.33 20.64 12.66 22 13 C19 14 19 14 17.08984375 13.328125 C16.37957031 12.97234375 15.66929688 12.6165625 14.9375 12.25 C-2.2019 4.18275798 -20.26210959 4.06278512 -38 10 C-54.92952644 16.73197639 -69.00428441 30.19168531 -76.2890625 46.96875 C-78.67877466 53.36423866 -80.12526626 59.10800412 -80.1328125 65.96484375 C-80.13410156 67.09470703 -80.13539062 68.22457031 -80.13671875 69.38867188 C-80.13285156 70.55978516 -80.12898438 71.73089844 -80.125 72.9375 C-80.12886719 74.10474609 -80.13273437 75.27199219 -80.13671875 76.47460938 C-80.13542969 77.60576172 -80.13414063 78.73691406 -80.1328125 79.90234375 C-80.13112061 81.44136353 -80.13112061 81.44136353 -80.12939453 83.01147461 C-79.99657973 86.07899527 -79.56609771 88.98484103 -79 92 C-79.66 92 -80.32 92 -81 92 C-83.04492537 85.15033128 -83.42050691 78.62317597 -83.625 71.5 C-83.66367188 70.39140625 -83.70234375 69.2828125 -83.7421875 68.140625 C-83.83575243 65.42724203 -83.92149483 62.71385339 -84 60 C-84.66 60 -85.32 60 -86 60 C-86.33 62.64 -86.66 65.28 -87 68 C-87.33 68 -87.66 68 -88 68 C-89.8175763 51.19751688 -80.49650644 34.27815581 -70.48046875 21.51171875 C-69.99191406 21.01285156 -69.50335938 20.51398437 -69 20 C-68.34 20 -67.68 20 -67 20 C-67 19.34 -67 18.68 -67 18 C-66.34 18 -65.68 18 -65 18 C-65 17.34 -65 16.68 -65 16 C-50.53879645 3.36068037 -19.07941684 -10.82607158 0 0 Z " fill="#2B9CDA" transform="translate(106,18)"/>
<path d="M0 0 C19.50691613 0.88067341 37.45372696 10.19001878 51 24 C57.30075956 31.07874969 67.03870906 42.84850179 66.984375 52.88671875 C66.4375 55.375 66.4375 55.375 65 59 C63.68 59 62.36 59 61 59 C60.34 61.64 59.68 64.28 59 67 C58.34 67 57.68 67 57 67 C56.91363281 66.35675781 56.82726562 65.71351562 56.73828125 65.05078125 C54.85171893 52.91793551 50.68836971 42.5944447 43 33 C42.38125 32.21753906 41.7625 31.43507813 41.125 30.62890625 C36.91345723 25.59373515 32.44007445 21.93546911 26.90625 18.41015625 C25.96265625 17.71212891 25.96265625 17.71212891 25 17 C25 16.34 25 15.68 25 15 C24.01 14.67 23.02 14.34 22 14 C22 13.34 22 12.68 22 12 C21.236875 11.896875 20.47375 11.79375 19.6875 11.6875 C16.81583516 10.95288806 15.76957906 10.3283935 14 8 C14 7.34 14 6.68 14 6 C12.989375 5.9175 11.97875 5.835 10.9375 5.75 C6.62213084 5.15993932 3.65261803 3.31083998 0 1 C0 0.67 0 0.34 0 0 Z " fill="#1283C5" transform="translate(102,16)"/>
<path d="M0 0 C0.02505615 0.71542969 0.0501123 1.43085937 0.07592773 2.16796875 C0.19279152 5.4454547 0.31510423 8.72271616 0.4375 12 C0.47681641 13.12535156 0.51613281 14.25070313 0.55664062 15.41015625 C0.78172547 21.33161908 1.14472084 27.13522862 2 33 C2.99 33.33 3.98 33.66 5 34 C6.24267234 36.54822689 7.35278173 39.07346984 8.4375 41.6875 C16.57953471 60.03711178 29.79593772 70.21048746 48 78 C48 78.33 48 78.66 48 79 C46.02 79 44.04 79 42 79 C42 78.34 42 77.68 42 77 C40.49759766 76.87044922 40.49759766 76.87044922 38.96484375 76.73828125 C31.44726341 75.98576787 25.70699041 75.33479538 20 70 C19.195625 69.278125 18.39125 68.55625 17.5625 67.8125 C2.10003452 50.8415013 -7.12274635 33.10327789 -6.40625 9.97265625 C-6 6 -6 6 -4 4 C-3.67 3.01 -3.34 2.02 -3 1 C-1 0 -1 0 0 0 Z " fill="#2687BB" transform="translate(23,77)"/>
<path d="M0 0 C10.89 0 21.78 0 33 0 C33 10.89 33 21.78 33 33 C32.67 33 32.34 33 32 33 C31.67 22.77 31.34 12.54 31 2 C18.625 2.495 18.625 2.495 6 3 C4.17930187 6.64139627 3.73161856 7.97419351 3.5859375 11.80859375 C3.54726562 12.72060547 3.50859375 13.63261719 3.46875 14.57226562 C3.42234375 15.99055664 3.42234375 15.99055664 3.375 17.4375 C3.33632812 18.37916016 3.29765625 19.32082031 3.2578125 20.29101562 C3.03211375 25.45768147 3.03211375 25.45768147 3.17822266 30.62133789 C3 33 3 33 1.85571289 34.79638672 C-0.74415286 36.4826567 -2.60893294 36.32459495 -5.69140625 36.2578125 C-6.80064453 36.24363281 -7.90988281 36.22945312 -9.05273438 36.21484375 C-10.79006836 36.17037109 -10.79006836 36.17037109 -12.5625 36.125 C-14.85539381 36.08176185 -17.14836707 36.04249488 -19.44140625 36.0078125 C-20.96809937 35.97131592 -20.96809937 35.97131592 -22.52563477 35.93408203 C-25.00355836 35.82543102 -25.00355836 35.82543102 -27 37 C-27.72159424 38.64363134 -28.39351421 40.31050386 -29 42 C-28.34 42.33 -27.68 42.66 -27 43 C-27.31710938 43.47953125 -27.63421875 43.9590625 -27.9609375 44.453125 C-29.47415767 48.16222106 -29.46691411 51.77809202 -29.625 55.75 C-29.66367187 56.54277344 -29.70234375 57.33554688 -29.7421875 58.15234375 C-29.836108 60.10119416 -29.91912822 62.05056451 -30 64 C-28.6070874 63.98428955 -28.6070874 63.98428955 -27.18603516 63.96826172 C-23.7457431 63.93420796 -20.30562973 63.90911507 -16.86523438 63.89013672 C-15.3752968 63.88006957 -13.88537903 63.86641482 -12.39550781 63.84912109 C-10.25580972 63.82490347 -8.11637247 63.81352436 -5.9765625 63.8046875 C-4.68830566 63.79421387 -3.40004883 63.78374023 -2.07275391 63.77294922 C1 64 1 64 3 66 C3.13525391 69.07275391 3.13525391 69.07275391 2.9765625 72.9765625 C2.93902359 74.00443375 2.93902359 74.00443375 2.90072632 75.05307007 C2.81847691 77.2442131 2.72190952 79.43446111 2.625 81.625 C2.56676528 83.1093383 2.50946189 84.59371346 2.453125 86.078125 C2.31289242 89.71923974 2.15981249 93.3596862 2 97 C4.27416962 96.94169277 6.54760417 96.85412627 8.8203125 96.75390625 C10.71934326 96.68538452 10.71934326 96.68538452 12.65673828 96.61547852 C16.04825207 96.33037676 16.04825207 96.33037676 17.83984375 94.06054688 C18.82137779 92.04747613 19.51255516 90.18355393 20 88 C21 91 21 91 18 99 C12.06 99 6.12 99 0 99 C0 88.11 0 77.22 0 66 C-10.23 66 -20.46 66 -31 66 C-31 55.11 -31 44.22 -31 33 C-20.77 33 -10.54 33 0 33 C0 22.11 0 11.22 0 0 Z " fill="#33CAC6" transform="translate(75,41)"/>
<path d="M0 0 C1.48983398 -0.01836914 1.48983398 -0.01836914 3.00976562 -0.03710938 C4.44545898 -0.04000977 4.44545898 -0.04000977 5.91015625 -0.04296875 C6.77906494 -0.04707764 7.64797363 -0.05118652 8.54321289 -0.05541992 C11.14390583 0.20844155 12.68987093 0.88778279 14.9375 2.1875 C19.752174 4.69519225 19.752174 4.69519225 24.9375 6.1875 C24.9375 6.8475 24.9375 7.5075 24.9375 8.1875 C25.9275 8.6825 25.9275 8.6825 26.9375 9.1875 C27.9275 10.1775 27.9275 10.1775 28.9375 11.1875 C31.00624034 11.8300235 31.00624034 11.8300235 32.9375 12.1875 C32.9375 12.8475 32.9375 13.5075 32.9375 14.1875 C34.2575 14.5175 35.5775 14.8475 36.9375 15.1875 C33.9375 16.1875 33.9375 16.1875 32.02734375 15.515625 C31.31707031 15.15984375 30.60679688 14.8040625 29.875 14.4375 C12.80813704 6.40440001 -5.39579297 6.1580948 -23.0625 12.1875 C-26.25246437 13.66120474 -29.33378709 15.25095761 -32.421875 16.92578125 C-36.04878587 18.65875789 -39.07276164 19.03404852 -43.0625 19.1875 C-42.7325 17.5375 -42.4025 15.8875 -42.0625 14.1875 C-40.7425 14.1875 -39.4225 14.1875 -38.0625 14.1875 C-38.0625 13.5275 -38.0625 12.8675 -38.0625 12.1875 C-23.2515971 3.51352215 -23.2515971 3.51352215 -16.0625 4.1875 C-16.0625 3.1975 -16.0625 2.2075 -16.0625 1.1875 C-10.68026305 -0.02243218 -5.49402544 0.00357917 0 0 Z " fill="#229AD2" transform="translate(91.0625,15.8125)"/>
<path d="M0 0 C0.33 0 0.66 0 1 0 C1 4.29 1 8.58 1 13 C2.32 12.67 3.64 12.34 5 12 C3.59659709 15.31778841 2.05539878 17.03258533 -0.8125 19.1875 C-1.61816406 19.7959375 -2.42382812 20.404375 -3.25390625 21.03125 C-6.21033115 23.15079217 -9.22670734 25.16464237 -12.25 27.1875 C-28.00911018 37.87503354 -40.51920672 50.98585113 -45 70 C-45.35737097 73.47564212 -45.50436134 76.9465188 -45.625 80.4375 C-45.66367188 81.35982422 -45.70234375 82.28214844 -45.7421875 83.23242188 C-45.83568676 85.48809143 -45.9214391 87.74376916 -46 90 C-47.32 89.67 -48.64 89.34 -50 89 C-50 87.68 -50 86.36 -50 85 C-54.29 84.67 -58.58 84.34 -63 84 C-63 83.67 -63 83.34 -63 83 C-58.38 82.67 -53.76 82.34 -49 82 C-48.34 77.05 -47.68 72.1 -47 67 C-53.27 67 -59.54 67 -66 67 C-66 66.67 -66 66.34 -66 66 C-60.06 66 -54.12 66 -48 66 C-47.67 64.02 -47.34 62.04 -47 60 C-44.8291109 54.22338523 -41.72687725 49.5033588 -37.75 44.8125 C-34.3507311 40.76788118 -33 38.27678852 -33 33 C-31.845 32.979375 -30.69 32.95875 -29.5 32.9375 C-24.77017442 32.34937808 -22.56539822 30.20105651 -19.21484375 26.9765625 C-15.9329669 24.04776235 -12.25927709 21.86710085 -8.515625 19.578125 C-5.99842544 18.05607336 -5.99842544 18.05607336 -3.796875 16.296875 C-2 15 -2 15 0 15 C0 10.05 0 5.1 0 0 Z " fill="#CAF5FB" transform="translate(141,74)"/>
<path d="M0 0 C6.17622375 0.48631683 10.88904328 1.91452524 16.4375 4.625 C17.18177246 4.98255371 17.92604492 5.34010742 18.69287109 5.70849609 C24.38213866 8.52140534 29.24673723 11.78274346 34 16 C34.58523437 16.44472656 35.17046875 16.88945313 35.7734375 17.34765625 C45.2200155 24.67837176 53.17863526 36.65700538 57 48 C56.98060318 51.58356237 56.33993372 53.62103671 55 57 C54.01 56.67 53.02 56.34 52 56 C50.89453125 53.11328125 50.89453125 53.11328125 49.8125 49.3125 C43.26591173 28.00404728 29.56537291 14.84303263 10.10546875 4.41015625 C6.75192875 2.88735381 3.5589167 1.92433596 0 1 C0 0.67 0 0.34 0 0 Z " fill="#000304" transform="translate(112,18)"/>
<path d="M0 0 C0.33 0 0.66 0 1 0 C1.02708567 1.60407328 1.04643483 3.2082785 1.0625 4.8125 C1.07410156 5.70582031 1.08570313 6.59914063 1.09765625 7.51953125 C1 10 1 10 0 13 C1.32 12.67 2.64 12.34 4 12 C4 11.34 4 10.68 4 10 C4.99 10.33 5.98 10.66 7 11 C-1.07769451 22.11971989 -9.7398176 32.26218424 -22 39 C-22.66 39 -23.32 39 -24 39 C-22.79763252 30.59809065 -16.43404784 25.25901195 -10.3125 19.875 C-3.47358816 13.79596726 -0.64508167 9.19241376 0 0 Z " fill="#EBF7FA" transform="translate(148,88)"/>
<path d="M0 0 C10.23 0 20.46 0 31 0 C31 0.33 31 0.66 31 1 C30.15703369 1.02505615 29.31406738 1.0501123 28.44555664 1.07592773 C25.32758326 1.17088155 22.20978497 1.27012448 19.09204102 1.37231445 C17.74085853 1.41571223 16.38961947 1.4573837 15.03833008 1.49731445 C13.09963299 1.55489952 11.16113724 1.61914298 9.22265625 1.68359375 C8.05484619 1.72025146 6.88703613 1.75690918 5.68383789 1.79467773 C3.08220205 1.70076188 3.08220205 1.70076188 2 3 C1.8415735 5.0708472 1.74875578 7.14678029 1.68359375 9.22265625 C1.64169922 10.48271484 1.59980469 11.74277344 1.55664062 13.04101562 C1.51682404 14.38150736 1.47711186 15.7220022 1.4375 17.0625 C1.39431958 18.40691523 1.35070544 19.7513166 1.30664062 21.09570312 C1.20014642 24.3970234 1.0981354 27.69842236 1 31 C2.3929126 30.98428955 2.3929126 30.98428955 3.81396484 30.96826172 C7.2542569 30.93420796 10.69437027 30.90911507 14.13476562 30.89013672 C15.6247032 30.88006957 17.11462097 30.86641482 18.60449219 30.84912109 C20.74419028 30.82490347 22.88362753 30.81352436 25.0234375 30.8046875 C26.31169434 30.79421387 27.59995117 30.78374023 28.92724609 30.77294922 C32 31 32 31 34 33 C34.13525391 36.07275391 34.13525391 36.07275391 33.9765625 39.9765625 C33.93902359 41.00443375 33.93902359 41.00443375 33.90072632 42.05307007 C33.81847691 44.2442131 33.72190952 46.43446111 33.625 48.625 C33.56676528 50.1093383 33.50946189 51.59371346 33.453125 53.078125 C33.31289242 56.71923974 33.15981249 60.3596862 33 64 C35.27416962 63.94169277 37.54760417 63.85412627 39.8203125 63.75390625 C41.08633301 63.7082251 42.35235352 63.66254395 43.65673828 63.61547852 C47.04825207 63.33037676 47.04825207 63.33037676 48.83984375 61.06054688 C49.82137779 59.04747613 50.51255516 57.18355393 51 55 C52 58 52 58 49 66 C43.06 66 37.12 66 31 66 C31 55.11 31 44.22 31 33 C20.77 33 10.54 33 0 33 C0 22.11 0 11.22 0 0 Z " fill="#44C7C7" transform="translate(44,74)"/>
<path d="M0 0 C0.02505615 0.71542969 0.0501123 1.43085937 0.07592773 2.16796875 C0.19279152 5.4454547 0.31510423 8.72271616 0.4375 12 C0.47681641 13.12535156 0.51613281 14.25070313 0.55664062 15.41015625 C0.78172547 21.33161908 1.14472084 27.13522862 2 33 C2.99 33.33 3.98 33.66 5 34 C6.26237731 36.52475462 6.09856404 38.31200466 6.0625 41.125 C6.05347656 42.03507812 6.04445313 42.94515625 6.03515625 43.8828125 C6.02355469 44.58148438 6.01195312 45.28015625 6 46 C3 45 3 45 1.24609375 42.015625 C0.63295344 40.76540397 0.03047422 39.50991081 -0.5625 38.25 C-0.86607422 37.62867188 -1.16964844 37.00734375 -1.48242188 36.3671875 C-2.34357712 34.58859236 -3.17252951 32.79451431 -4 31 C-4.39574219 30.23558594 -4.79148437 29.47117187 -5.19921875 28.68359375 C-6.46737994 24.43370721 -6.28775997 20.22097666 -6.25 15.8125 C-6.26160156 14.44061523 -6.26160156 14.44061523 -6.2734375 13.04101562 C-6.27085938 12.16767578 -6.26828125 11.29433594 -6.265625 10.39453125 C-6.26336914 9.59893799 -6.26111328 8.80334473 -6.25878906 7.98364258 C-6 6 -6 6 -4 4 C-3.67 3.01 -3.34 2.02 -3 1 C-1 0 -1 0 0 0 Z " fill="#2198D3" transform="translate(23,77)"/>
<path d="M0 0 C14.51406536 9.18236788 22.24934905 25.76362945 26 42 C25.34 42 24.68 42 24 42 C23.34 44.64 22.68 47.28 22 50 C21.34 50 20.68 50 20 50 C19.91363281 49.35675781 19.82726562 48.71351562 19.73828125 48.05078125 C17.90094697 36.23453053 13.5471864 25.96702259 7 16 C8.32 16.33 9.64 16.66 11 17 C9.74119423 11.96477691 8.18632058 9.99022898 4 7 C1.6875 4.9375 1.6875 4.9375 0 3 C0 2.01 0 1.02 0 0 Z " fill="#227AAE" transform="translate(139,33)"/>
<path d="M0 0 C1.41623216 -0.05447047 2.83308191 -0.09300508 4.25 -0.125 C5.03890625 -0.14820313 5.8278125 -0.17140625 6.640625 -0.1953125 C9.20731941 0.0171622 10.7916067 0.71345895 13 2 C13 2.66 13 3.32 13 4 C14.98 4 16.96 4 19 4 C19.33 5.32 19.66 6.64 20 8 C20.64066406 7.91621094 21.28132813 7.83242187 21.94140625 7.74609375 C27.17294838 7.13015958 31.8780152 6.61279578 37 8 C37.69937532 9.31647119 38.36729133 10.65022151 39 12 C42.05908413 12.81584568 42.05908413 12.81584568 45 13 C45.1546875 13.9590625 45.1546875 13.9590625 45.3125 14.9375 C45.539375 15.618125 45.76625 16.29875 46 17 C46.99 17.33 47.98 17.66 49 18 C47.68 18.33 46.36 18.66 45 19 C44.67 17.35 44.34 15.7 44 14 C43.1028125 13.98582031 42.205625 13.97164062 41.28125 13.95703125 C26.91082834 13.4077486 13.34707673 9.61365853 1 2 C0.67 1.34 0.34 0.68 0 0 Z " fill="#0A609B" transform="translate(52,152)"/>
<path d="M0 0 C0.495 1.485 0.495 1.485 1 3 C0.14277344 3.24234375 -0.71445313 3.4846875 -1.59765625 3.734375 C-7.93102389 5.59083 -13.40306492 7.51746262 -19 11 C-19.66 11 -20.32 11 -21 11 C-21 11.66 -21 12.32 -21 13 C-22.32 13 -23.64 13 -25 13 C-25.33 14.65 -25.66 16.3 -26 18 C-22.535 17.505 -22.535 17.505 -19 17 C-21.47598036 19.57914621 -24.07236997 21.89962444 -26.8125 24.1875 C-31.2041234 27.97764402 -34.60353133 32.31924162 -38 37 C-39.09658936 33.71023192 -38.79953138 32.28696233 -38 29 C-36.68 28.67 -35.36 28.34 -34 28 C-33.67 26.68 -33.34 25.36 -33 24 C-31.68 24 -30.36 24 -29 24 C-29 23.01 -29 22.02 -29 21 C-28.01 21 -27.02 21 -26 21 C-26 20.34 -26 19.68 -26 19 C-28.43717258 19.27034634 -28.43717258 19.27034634 -31 20 C-31.66 20.99 -32.32 21.98 -33 23 C-35.625 23.6875 -35.625 23.6875 -38 24 C-37.67 23.01 -37.34 22.02 -37 21 C-36.34 21 -35.68 21 -35 21 C-35 20.34 -35 19.68 -35 19 C-34.34 19 -33.68 19 -33 19 C-33 18.34 -33 17.68 -33 17 C-23.4821064 8.6812111 -12.20242863 3.07760368 0 0 Z " fill="#44A1D4" transform="translate(74,17)"/>
<path d="M0 0 C11.55 0 23.1 0 35 0 C35 10.56 35 21.12 35 32 C45.23 32.33 55.46 32.66 66 33 C66 33.33 66 33.66 66 34 C55.11 34 44.22 34 33 34 C33 23.11 33 12.22 33 1 C22.11 1 11.22 1 0 1 C0 0.67 0 0.34 0 0 Z " fill="#C0F8F8" transform="translate(75,40)"/>
<path d="M0 0 C0.99322266 -0.01224609 1.98644531 -0.02449219 3.00976562 -0.03710938 C4.44545898 -0.04000977 4.44545898 -0.04000977 5.91015625 -0.04296875 C6.77906494 -0.04707764 7.64797363 -0.05118652 8.54321289 -0.05541992 C11.14390583 0.20844155 12.68987093 0.88778279 14.9375 2.1875 C19.752174 4.69519225 19.752174 4.69519225 24.9375 6.1875 C24.9375 6.8475 24.9375 7.5075 24.9375 8.1875 C25.5975 8.5175 26.2575 8.8475 26.9375 9.1875 C15.92205056 8.36025281 15.92205056 8.36025281 10.9375 6.1875 C10.6075 5.5275 10.2775 4.8675 9.9375 4.1875 C1.6875 4.1875 -6.5625 4.1875 -15.0625 4.1875 C-15.3925 3.1975 -15.7225 2.2075 -16.0625 1.1875 C-10.68026305 -0.02243218 -5.49402544 0.00357917 0 0 Z " fill="#1880B8" transform="translate(91.0625,15.8125)"/>
<path d="M0 0 C0.66 0.33 1.32 0.66 2 1 C1.4225 2.051875 0.845 3.10375 0.25 4.1875 C-0.51879299 5.78274545 -1.26703739 7.38797751 -2 9 C-2.3815625 9.82886719 -2.763125 10.65773438 -3.15625 11.51171875 C-8.07213551 24.38080474 -7.46528622 40.60159745 -5 54 C-5.66 54 -6.32 54 -7 54 C-9.04492537 47.15033128 -9.42050691 40.62317597 -9.625 33.5 C-9.66367187 32.39140625 -9.70234375 31.2828125 -9.7421875 30.140625 C-9.83575243 27.42724203 -9.92149483 24.71385339 -10 22 C-10.66 21.67 -11.32 21.34 -12 21 C-11.01 17.7 -10.02 14.4 -9 11 C-7.68 11 -6.36 11 -5 11 C-4.80664062 10.45730469 -4.61328125 9.91460937 -4.4140625 9.35546875 C-4.15367188 8.64003906 -3.89328125 7.92460938 -3.625 7.1875 C-3.36976562 6.47980469 -3.11453125 5.77210937 -2.8515625 5.04296875 C-2 3 -2 3 0 0 Z " fill="#369ECB" transform="translate(32,56)"/>
<path d="M0 0 C0.66 0.33 1.32 0.66 2 1 C1.60167969 1.44730469 1.20335937 1.89460937 0.79296875 2.35546875 C-1.59027941 5.07503903 -3.78027846 7.62816355 -5.625 10.75 C-8.20726066 14.97551745 -11.61544773 16.26616447 -16.06542969 18.14404297 C-17.96493947 18.98448735 -19.80006042 19.89732949 -21.640625 20.859375 C-22.23617187 21.17003906 -22.83171875 21.48070312 -23.4453125 21.80078125 C-24.66712779 22.44342436 -25.8858116 23.09205055 -27.1015625 23.74609375 C-28.69786925 24.57213021 -30.34710017 25.29398751 -32 26 C-32.99 25.67 -33.98 25.34 -35 25 C-34.51756836 24.71390869 -34.03513672 24.42781738 -33.53808594 24.13305664 C-15.67313772 13.53400593 -15.67313772 13.53400593 0 0 Z " fill="#C5E9F2" transform="translate(149,135)"/>
<path d="M0 0 C1.17433594 -0.020625 2.34867188 -0.04125 3.55859375 -0.0625 C14.33316852 -0.10991287 24.51135101 1.49391561 34.25 6.25 C34.25 6.91 34.25 7.57 34.25 8.25 C35.57 8.58 36.89 8.91 38.25 9.25 C35.25 10.25 35.25 10.25 33.33984375 9.578125 C32.62957031 9.22234375 31.91929688 8.8665625 31.1875 8.5 C12.74230441 -0.18185916 -5.66477832 0.85060677 -24.53125 7.18359375 C-26.28714306 7.8296882 -28.02293356 8.53038899 -29.75 9.25 C-29.42 8.26 -29.09 7.27 -28.75 6.25 C-26.77 5.92 -24.79 5.59 -22.75 5.25 C-22.75 4.59 -22.75 3.93 -22.75 3.25 C-21.79287109 3.05083984 -21.79287109 3.05083984 -20.81640625 2.84765625 C-19.99011719 2.67105469 -19.16382812 2.49445312 -18.3125 2.3125 C-17.07693359 2.05146484 -17.07693359 2.05146484 -15.81640625 1.78515625 C-10.49422395 0.4068217 -5.92519463 0.02502722 0 0 Z " fill="#3892BB" transform="translate(89.75,21.75)"/>
<path d="M0 0 C0.33 0 0.66 0 1 0 C1 4.29 1 8.58 1 13 C2.32 12.67 3.64 12.34 5 12 C1.41938902 20.51554631 -9.48617397 25.37934811 -17 30 C-17 29.34 -17 28.68 -17 28 C-18.32 28.99 -19.64 29.98 -21 31 C-21.66 30.67 -22.32 30.34 -23 30 C-8.47752809 17.8258427 -8.47752809 17.8258427 0 15 C0 10.05 0 5.1 0 0 Z " fill="#BEF1F9" transform="translate(141,74)"/>
<path d="M0 0 C3.3 0.33 6.6 0.66 10 1 C10 1.66 10 2.32 10 3 C11.0209375 3.09796875 12.041875 3.1959375 13.09375 3.296875 C21.91668675 4.88500361 29.9620581 10.59878877 37 16 C35.02 16.99 35.02 16.99 33 18 C32.29875 17.236875 31.5975 16.47375 30.875 15.6875 C27.75783034 12.77362401 24.45031218 10 20 10 C20.33 10.66 20.66 11.32 21 12 C17.75728494 11.4409112 16.06942576 10.5867822 14 8 C14 7.34 14 6.68 14 6 C12.989375 5.9175 11.97875 5.835 10.9375 5.75 C6.62213084 5.15993932 3.65261803 3.31083998 0 1 C0 0.67 0 0.34 0 0 Z " fill="#197BB7" transform="translate(102,16)"/>
<path d="M0 0 C0.33 0 0.66 0 1 0 C1.23509196 4.81938524 0.45184478 8.46298506 -1 13 C-0.34 13.33 0.32 13.66 1 14 C0.66226563 14.47050781 0.32453125 14.94101563 -0.0234375 15.42578125 C-0.46945313 16.04839844 -0.91546875 16.67101562 -1.375 17.3125 C-1.81585938 17.92738281 -2.25671875 18.54226562 -2.7109375 19.17578125 C-3.83410907 20.7652392 -4.92041447 22.38062171 -6 24 C-7.32 23.67 -8.64 23.34 -10 23 C-10.33 24.32 -10.66 25.64 -11 27 C-11.66 27 -12.32 27 -13 27 C-13.33 28.32 -13.66 29.64 -14 31 C-15.32 31.33 -16.64 31.66 -18 32 C-17.6596875 31.58492187 -17.319375 31.16984375 -16.96875 30.7421875 C-9.70088339 21.50271877 -3.88628033 11.09635305 0 0 Z " fill="#198BC9" transform="translate(165,77)"/>
<path d="M0 0 C10.89 0 21.78 0 33 0 C33 4.95 33 9.9 33 15 C32.01 15.33 31.02 15.66 30 16 C30 11.71 30 7.42 30 3 C20.43 2.67 10.86 2.34 1 2 C0.67 1.34 0.34 0.68 0 0 Z " fill="#34BCCE" transform="translate(108,74)"/>
<path d="M0 0 C7.67556492 6.57905564 9.53092278 16.6490267 12 26 C11.34 26 10.68 26 10 26 C9.34 28.64 8.68 31.28 8 34 C7.34 34 6.68 34 6 34 C6.01571045 33.42556152 6.0314209 32.85112305 6.04760742 32.25927734 C6.11035513 29.63128691 6.14911506 27.00345463 6.1875 24.375 C6.21263672 23.47136719 6.23777344 22.56773438 6.26367188 21.63671875 C6.32304947 16.21356468 5.80579463 12.78678875 3 8 C3 7.01 3 6.02 3 5 C2.01 5 1.02 5 0 5 C0 3.35 0 1.7 0 0 Z " fill="#0864A1" transform="translate(153,49)"/>
<path d="M0 0 C0.33 0.66 0.66 1.32 1 2 C0.06421005 4.35981813 -0.93347808 6.69631264 -2 9 C-2.66 9 -3.32 9 -4 9 C-3.95875 9.680625 -3.9175 10.36125 -3.875 11.0625 C-4.02665567 14.62640824 -4.97479436 17.58264787 -6 21 C-8.0085116 28.06862423 -8.24506857 34.7429353 -8.125 42.0625 C-8.11597656 43.11888672 -8.10695313 44.17527344 -8.09765625 45.26367188 C-8.0743167 47.84269253 -8.04157775 50.4212199 -8 53 C-13.02539783 45.46190326 -10.84840025 30.45137691 -9.6953125 21.68310547 C-8.1198206 13.8398084 -4.08338937 6.79203764 0 0 Z " fill="#C7EFF8" transform="translate(35,54)"/>
<path d="M0 0 C0.99 0.33 1.98 0.66 3 1 C2 3 2 3 0 5 C-2.75372909 5.36933645 -5.20365661 5.18336678 -8 5 C-7.835 5.94875 -7.67 6.8975 -7.5 7.875 C-7.44852664 12.93997848 -10.7764202 15.94360482 -13.95703125 19.5703125 C-15.94445244 21.9339377 -17.4855023 24.31499147 -19 27 C-19.33 25.68 -19.66 24.36 -20 23 C-19.34 23 -18.68 23 -18 23 C-17.9175 22.05125 -17.835 21.1025 -17.75 20.125 C-17 17 -17 17 -14.9375 15.625 C-14.298125 15.41875 -13.65875 15.2125 -13 15 C-13 14.34 -13 13.68 -13 13 C-12.34 13 -11.68 13 -11 13 C-10.93941406 12.36191406 -10.87882812 11.72382812 -10.81640625 11.06640625 C-10.73261719 10.24011719 -10.64882812 9.41382812 -10.5625 8.5625 C-10.48128906 7.73878906 -10.40007812 6.91507812 -10.31640625 6.06640625 C-10 4 -10 4 -9 3 C-7.48071962 2.92820036 -5.95832518 2.91607993 -4.4375 2.9375 C-3.61121094 2.94652344 -2.78492187 2.95554687 -1.93359375 2.96484375 C-1.29550781 2.97644531 -0.65742187 2.98804687 0 3 C0 2.01 0 1.02 0 0 Z " fill="#2CBAD2" transform="translate(116,102)"/>
<path d="M0 0 C0.33 0 0.66 0 1 0 C1 9.9 1 19.8 1 30 C5.62 29.67 10.24 29.34 15 29 C17.73605766 25.16334539 17.73605766 25.16334539 19 21 C20.478746 25.436238 18.74833678 27.73405826 17 32 C11.39 32 5.78 32 0 32 C0 21.44 0 10.88 0 0 Z " fill="#28B6CD" transform="translate(76,108)"/>
<path d="M0 0 C5.55778539 1.19873803 8.14626641 2.61102563 12 7 C14.18237049 9.35024514 14.84168378 9.94722793 18 11 C18.33 10.34 18.66 9.68 19 9 C22.2542015 11.83430453 23.5206753 13.68607774 24 18 C20.80586074 18 19.66892221 17.63562353 17 16 C15.4296875 14.30078125 15.4296875 14.30078125 13.875 12.3125 C10.38724479 8.14846982 6.46823389 5.30932143 1.94140625 2.34765625 C1.30074219 1.90292969 0.66007812 1.45820312 0 1 C0 0.67 0 0.34 0 0 Z " fill="#227DB5" transform="translate(127,32)"/>
<path d="M0 0 C-0.33 1.65 -0.66 3.3 -1 5 C-1.99 5.33 -2.98 5.66 -4 6 C-4.73323796 8.01508358 -4.73323796 8.01508358 -5 10 C-4.67 7.69 -4.34 5.38 -4 3 C-5.13199353 3.9080162 -6.25532363 4.82683826 -7.375 5.75 C-8.31472656 6.51570313 -8.31472656 6.51570313 -9.2734375 7.296875 C-11.08312318 9.08199481 -12.00117455 10.67949644 -13 13 C-13.99 13 -14.98 13 -16 13 C-14.54430474 7.78375867 -12.65198933 3.85639253 -8.125 0.6875 C-5.35788795 -0.20774213 -2.88772424 -0.13126019 0 0 Z " fill="#2493CE" transform="translate(185,56)"/>
<path d="M0 0 C-0.79409926 3.97049631 -2.10213431 9.10213431 -5 12 C-7.01964199 12.07244053 -9.04167124 12.08377188 -11.0625 12.0625 C-12.71958984 12.04896484 -12.71958984 12.04896484 -14.41015625 12.03515625 C-15.26480469 12.02355469 -16.11945313 12.01195312 -17 12 C-17.33 10.68 -17.66 9.36 -18 8 C-17.01 8.33 -16.02 8.66 -15 9 C-13.6082227 9.21555251 -12.21168784 9.40193746 -10.8125 9.5625 C-9.554375 9.706875 -8.29625 9.85125 -7 10 C-7.2475 9.278125 -7.495 8.55625 -7.75 7.8125 C-8 5 -8 5 -6.3125 2.1875 C-4 0 -4 0 0 0 Z " fill="#08BEDF" transform="translate(96,126)"/>
<path d="M0 0 C0.66 0 1.32 0 2 0 C2 10.89 2 21.78 2 33 C0.68 32.34 -0.64 31.68 -2 31 C-1.67 30.67 -1.34 30.34 -1 30 C-0.84126045 27.78312006 -0.74866163 25.56144702 -0.68359375 23.33984375 C-0.66281265 22.67537735 -0.64203156 22.01091095 -0.62062073 21.3263092 C-0.55506342 19.19681457 -0.49621215 17.06719332 -0.4375 14.9375 C-0.39432061 13.49673153 -0.35070651 12.05597601 -0.30664062 10.61523438 C-0.19937607 7.0769596 -0.09812629 3.53854131 0 0 Z " fill="#C9F9F9" transform="translate(42,74)"/>
<path d="M0 0 C0.33 0 0.66 0 1 0 C1 6.93 1 13.86 1 21 C-0.65 21 -2.3 21 -4 21 C-4.21011719 20.35546875 -4.42023438 19.7109375 -4.63671875 19.046875 C-5.85130898 16.71558622 -5.85130898 16.71558622 -8.64453125 16.390625 C-9.68996094 16.34421875 -10.73539063 16.2978125 -11.8125 16.25 C-12.85019531 16.19328125 -13.88789062 16.1365625 -14.95703125 16.078125 C-17.64007532 16.00924068 -20.31627626 15.98015731 -23 16 C-23.33 14.68 -23.66 13.36 -24 12 C-23.14277344 12.13277344 -22.28554687 12.26554688 -21.40234375 12.40234375 C-15.60543791 13.29769448 -9.80940292 14.18938564 -4 15 C-3.896875 15.639375 -3.79375 16.27875 -3.6875 16.9375 C-3.460625 17.618125 -3.23375 18.29875 -3 19 C-2.01 19.33 -1.02 19.66 0 20 C0 13.4 0 6.8 0 0 Z " fill="#2D7EB0" transform="translate(95,144)"/>
<path d="M0 0 C0 3.96492963 -0.95976805 6.74305306 -3.5 9.8125 C-5 11 -5 11 -7 11 C-6.62875 12.0209375 -6.62875 12.0209375 -6.25 13.0625 C-5.94562423 16.6389153 -7.12465586 18.31756114 -9.0078125 21.28515625 C-10.26477185 23.45761749 -10.69970434 25.52256081 -11 28 C-11.33 28 -11.66 28 -12 28 C-13.10575436 18.56013409 -9.97439042 12.15596595 -4.265625 4.75 C-2.89042903 3.12595905 -1.45201956 1.55573524 0 0 Z " fill="#1873B2" transform="translate(110,116)"/>
<path d="M0 0 C0.33 0.66 0.66 1.32 1 2 C1.5775 1.67 2.155 1.34 2.75 1 C5 0 5 0 9 0 C8.6875 2.625 8.6875 2.625 7 6 C3.49934211 8.35142527 -0.18962518 10.20313428 -4 12 C-4 11.01 -4 10.02 -4 9 C-3.34 8.67 -2.68 8.34 -2 8 C-2 6.68 -2 5.36 -2 4 C-1.34 4 -0.68 4 0 4 C0 2.68 0 1.36 0 0 Z " fill="#18BADD" transform="translate(130,86)"/>
<path d="M0 0 C0.33 0.99 0.66 1.98 1 3 C0.14277344 3.24234375 -0.71445313 3.4846875 -1.59765625 3.734375 C-7.93102389 5.59083 -13.40306492 7.51746262 -19 11 C-19.66 11 -20.32 11 -21 11 C-21 11.66 -21 12.32 -21 13 C-22.32 13 -23.64 13 -25 13 C-25 13.66 -25 14.32 -25 15 C-25.66 14.67 -26.32 14.34 -27 14 C-27 13.34 -27 12.68 -27 12 C-18.80820048 5.94386516 -9.64207607 2.85837501 0 0 Z " fill="#3EA8E0" transform="translate(74,17)"/>
<path d="M0 0 C0.33 0 0.66 0 1 0 C1 4.62 1 9.24 1 14 C-0.32 13.67 -1.64 13.34 -3 13 C-3 11.68 -3 10.36 -3 9 C-7.29 8.67 -11.58 8.34 -16 8 C-16 7.67 -16 7.34 -16 7 C-11.38 6.67 -6.76 6.34 -2 6 C-1.34 4.02 -0.68 2.04 0 0 Z " fill="#BFE4F1" transform="translate(94,150)"/>
<path d="M0 0 C-1.98972775 4.51854431 -4.98122179 7.21445201 -9 10 C-11.9375 10.875 -11.9375 10.875 -14 11 C-14.33 9.02 -14.66 7.04 -15 5 C-13.453125 4.87625 -13.453125 4.87625 -11.875 4.75 C-7.51782409 3.90667563 -4.11083884 0 0 0 Z " fill="#DFFBFD" transform="translate(124,102)"/>
<path d="M0 0 C3.8425617 1.60106738 5.53683771 3.4782097 7.3125 7.125 C9.26994389 11.91248324 9.32541827 15.87466222 9 21 C5.72171327 17.72171327 4.78054159 13.27319998 3.21875 8.96875 C2.19918002 5.94211801 2.19918002 5.94211801 0 4 C0 2.68 0 1.36 0 0 Z " fill="#0B77BE" transform="translate(151,51)"/>
<path d="M0 0 C0.33 0 0.66 0 1 0 C1.33 2.31 1.66 4.62 2 7 C2.33 7 2.66 7 3 7 C3.33 13.93 3.66 20.86 4 28 C-0.12442479 21.81336281 -0.25838593 16.94677293 -0.125 9.6875 C-0.11597656 8.75615234 -0.10695313 7.82480469 -0.09765625 6.86523438 C-0.07418263 4.5765564 -0.04134729 2.28841328 0 0 Z " fill="#267FBD" transform="translate(17,83)"/>
<path d="M0 0 C0.33 0.66 0.66 1.32 1 2 C-0.28965176 3.37562854 -1.62689293 4.70766393 -3 6 C-3.66 6 -4.32 6 -5 6 C-5.20625 6.598125 -5.4125 7.19625 -5.625 7.8125 C-7.49729236 10.79114694 -9.88862511 11.47741229 -13 13 C-13.33 13.99 -13.66 14.98 -14 16 C-15.32 15.67 -16.64 15.34 -18 15 C-16.12971875 13.24471987 -14.2540838 11.49581545 -12.375 9.75 C-11.59189453 9.01330078 -11.59189453 9.01330078 -10.79296875 8.26171875 C-7.38645667 5.1075409 -3.9280064 2.47712115 0 0 Z " fill="#287CB1" transform="translate(129,100)"/>
<path d="M0 0 C0.33 0 0.66 0 1 0 C1 4.29 1 8.58 1 13 C2.32 12.67 3.64 12.34 5 12 C3.5741914 15.45195767 1.90253666 17.1014256 -1.125 19.25 C-1.84945312 19.77078125 -2.57390625 20.2915625 -3.3203125 20.828125 C-3.87460938 21.21484375 -4.42890625 21.6015625 -5 22 C-5.66 21.34 -6.32 20.68 -7 20 C-5.37660195 18.29115995 -3.70680947 16.62553283 -2 15 C-1.34 15 -0.68 15 0 15 C0 10.05 0 5.1 0 0 Z " fill="#CDF6FC" transform="translate(141,74)"/>
<path d="M0 0 C0.99 0.33 1.98 0.66 3 1 C1.46691095 3.06936723 -0.07589853 5.13016897 -1.625 7.1875 C-2.05167969 7.76564453 -2.47835937 8.34378906 -2.91796875 8.93945312 C-5.91932859 12.90393589 -9.07471024 15.94379932 -13 19 C-13.33 18.01 -13.66 17.02 -14 16 C-13.34 16 -12.68 16 -12 16 C-12 15.01 -12 14.02 -12 13 C-11.05125 12.79375 -10.1025 12.5875 -9.125 12.375 C-5.70833333 11.29166667 -5.70833333 11.29166667 -4.625 7.875 C-4.41875 6.92625 -4.2125 5.9775 -4 5 C-3.34 5 -2.68 5 -2 5 C-2 4.01 -2 3.02 -2 2 C-1.34 2 -0.68 2 0 2 C0 1.34 0 0.68 0 0 Z " fill="#CDEFF9" transform="translate(152,98)"/>
<path d="M0 0 C0.56122991 11.8689733 0.56122991 11.8689733 -3 16 C-3.33 16 -3.66 16 -4 16 C-6.66573981 7.40850737 -6.66573981 7.40850737 -5.0546875 4 C-1.68930288 0 -1.68930288 0 0 0 Z " fill="#1F84BA" transform="translate(148,85)"/>
<path d="M0 0 C1.51400391 0.01740234 1.51400391 0.01740234 3.05859375 0.03515625 C4.07050781 0.04417969 5.08242187 0.05320312 6.125 0.0625 C7.29869141 0.07990234 7.29869141 0.07990234 8.49609375 0.09765625 C4.80562843 2.23774568 0.858702 3.07922189 -3.25390625 4.03515625 C-8.84914499 5.37831709 -14.18001226 6.87936709 -19.50390625 9.09765625 C-19.17390625 8.10765625 -18.84390625 7.11765625 -18.50390625 6.09765625 C-16.52390625 5.76765625 -14.54390625 5.43765625 -12.50390625 5.09765625 C-12.50390625 4.43765625 -12.50390625 3.77765625 -12.50390625 3.09765625 C-11.54677734 2.89849609 -11.54677734 2.89849609 -10.5703125 2.6953125 C-9.74402344 2.51871094 -8.91773437 2.34210937 -8.06640625 2.16015625 C-6.83083984 1.89912109 -6.83083984 1.89912109 -5.5703125 1.6328125 C-2.92897735 0.94876162 -2.85911823 0.11151007 0 0 Z " fill="#409FC3" transform="translate(79.50390625,21.90234375)"/>
<path d="M0 0 C2.82695673 2.48940965 4.33211195 5.2389158 6.0625 8.5625 C8.13325518 12.57205033 8.13325518 12.57205033 11 16 C11.66 15.67 12.32 15.34 13 15 C13 17.64 13 20.28 13 23 C6.51519152 17.01512169 1.77032973 8.65494535 0 0 Z " fill="#16699D" transform="translate(21,113)"/>
<path d="M0 0 C6.47774481 3.67655786 6.47774481 3.67655786 8 6 C8.24806737 8.71795554 8.13476345 11.25980988 8 14 C4.37720616 12.79240205 4.08839169 11.94596794 2.3125 8.6875 C1.87550781 7.90761719 1.43851563 7.12773438 0.98828125 6.32421875 C0 4 0 4 0 0 Z " fill="#1B8ECA" transform="translate(21,109)"/>
<path d="M0 0 C2.625 -0.1875 2.625 -0.1875 5 0 C5 0.66 5 1.32 5 2 C4.01 2 3.02 2 2 2 C2 2.99 2 3.98 2 5 C0.68 5 -0.64 5 -2 5 C-2.185625 6.2065625 -2.185625 6.2065625 -2.375 7.4375 C-2.58125 8.283125 -2.7875 9.12875 -3 10 C-3.99 10.495 -3.99 10.495 -5 11 C-5.66 10.67 -6.32 10.34 -7 10 C-7 8.35 -7 6.7 -7 5 C-6.21625 4.731875 -5.4325 4.46375 -4.625 4.1875 C-1.71885077 3.15185568 -1.71885077 3.15185568 0 0 Z " fill="#249FD8" transform="translate(43,36)"/>
<path d="M0 0 C0.66 0.33 1.32 0.66 2 1 C1.60167969 1.44730469 1.20335937 1.89460937 0.79296875 2.35546875 C-1.59027941 5.07503903 -3.78027846 7.62816355 -5.625 10.75 C-7.11868084 13.19420501 -8.62187547 14.44191841 -11 16 C-11.66 15.67 -12.32 15.34 -13 15 C-12.505 14.566875 -12.01 14.13375 -11.5 13.6875 C-9.66781808 12.00259517 -9.66781808 12.00259517 -10 9 C-7.8125 6.73828125 -7.8125 6.73828125 -5 4.3125 C-4.071875 3.50425781 -3.14375 2.69601563 -2.1875 1.86328125 C-1.1046875 0.94095703 -1.1046875 0.94095703 0 0 Z " fill="#86BED4" transform="translate(149,135)"/>
<path d="M0 0 C0.83595703 0.00451172 1.67191406 0.00902344 2.53320312 0.01367188 C4.58466649 0.02539452 6.63609273 0.04332797 8.6875 0.0625 C8.6875 0.3925 8.6875 0.7225 8.6875 1.0625 C4.0675 1.3925 -0.5525 1.7225 -5.3125 2.0625 C-5.3125 2.7225 -5.3125 3.3825 -5.3125 4.0625 C-7.9525 4.0625 -10.5925 4.0625 -13.3125 4.0625 C-13.6425 3.0725 -13.9725 2.0825 -14.3125 1.0625 C-9.54157044 -0.17152862 -4.88780554 -0.05015112 0 0 Z " fill="#2F89C5" transform="translate(89.3125,15.9375)"/>
<path d="M0 0 C1.32 0 2.64 0 4 0 C4 0.66 4 1.32 4 2 C2.62304688 3.14501953 2.62304688 3.14501953 0.71875 4.3828125 C-0.29638672 5.04990234 -0.29638672 5.04990234 -1.33203125 5.73046875 C-2.40517578 6.42076172 -2.40517578 6.42076172 -3.5 7.125 C-4.57314453 7.82689453 -4.57314453 7.82689453 -5.66796875 8.54296875 C-7.44126915 9.70152501 -9.2201309 10.85156066 -11 12 C-11.33 11.01 -11.66 10.02 -12 9 C-10.1875 7 -10.1875 7 -8 5 C-7.01 5 -6.02 5 -5 5 C-5 4.34 -5 3.68 -5 3 C-3.35 3 -1.7 3 0 3 C0 2.01 0 1.02 0 0 Z " fill="#196FAD" transform="translate(138,141)"/>
<path d="M0 0 C1.65 0.99 3.3 1.98 5 3 C2.95353916 5.14033519 0.85768807 6.9209367 -1.5625 8.625 C-2.16191406 9.05039063 -2.76132813 9.47578125 -3.37890625 9.9140625 C-5 11 -5 11 -7 12 C-7 11.01 -7 10.02 -7 9 C-6.34 9 -5.68 9 -5 9 C-4.67 6.69 -4.34 4.38 -4 2 C-3.34 2.33 -2.68 2.66 -2 3 C-0.84188612 1.94729537 -0.84188612 1.94729537 0 0 Z " fill="#0B70B4" transform="translate(120,150)"/>
<path d="M0 0 C2.97 0 5.94 0 9 0 C9 1.66666667 9 3.33333333 9 5 C10.093125 5.103125 11.18625 5.20625 12.3125 5.3125 C15.85559629 5.97307727 16.93243723 6.2027092 19 9 C14.37464644 8.43830039 10.83218149 7.17355197 6.6875 5.0625 C5.63949219 4.53785156 4.59148438 4.01320312 3.51171875 3.47265625 C1 2 1 2 0 0 Z " fill="#0968A4" transform="translate(52,152)"/>
<path d="M0 0 C0.99 0 1.98 0 3 0 C1.50921954 3.39094623 -0.4530955 5.82826712 -2.9375 8.5625 C-3.62714844 9.32691406 -4.31679688 10.09132813 -5.02734375 10.87890625 C-6.65153277 12.62531147 -8.29797436 14.32998738 -10 16 C-9.67 13.36 -9.34 10.72 -9 8 C-7.68 7.67 -6.36 7.34 -5 7 C-4.67 5.68 -4.34 4.36 -4 3 C-2.68 3 -1.36 3 0 3 C0 2.01 0 1.02 0 0 Z " fill="#3D9EC9" transform="translate(45,38)"/>
<path d="M0 0 C7.24871531 1.60725395 13.13482144 5.60111608 19 10 C17.02 10.99 17.02 10.99 15 12 C13.948125 10.8553125 13.948125 10.8553125 12.875 9.6875 C10.00372488 7.00348195 7.56270085 5.59184506 4 4 C2.66666667 3.33333333 1.33333333 2.66666667 0 2 C0 1.34 0 0.68 0 0 Z " fill="#0F5F8B" transform="translate(120,22)"/>
<path d="M0 0 C5.92992772 3.75158693 10.17616822 8.08410221 14 14 C14 14.66 14 15.32 14 16 C11 15 11 15 9.75 12.75 C8.01951999 10.03067427 6.99649436 9.19059637 4.375 7.5 C1.11204955 5.33614865 1.11204955 5.33614865 0.0625 2.1875 C0.0315625 1.1046875 0.0315625 1.1046875 0 0 Z " fill="#09466C" transform="translate(139,33)"/>
<path d="M0 0 C2 1 4 2 6 3 C6 3.66 6 4.32 6 5 C8.475 5.99 8.475 5.99 11 7 C11 7.66 11 8.32 11 9 C5.68972746 7.53967505 1.53669968 5.01679014 -3 2 C-2.01 1.34 -1.02 0.68 0 0 Z " fill="#D3F1F8" transform="translate(55,144)"/>
<path d="M0 0 C1.13732426 3.40401948 0.83989957 5.77456664 0.0625 9.25 C-0.13214844 10.14203125 -0.32679687 11.0340625 -0.52734375 11.953125 C-0.68332031 12.62859375 -0.83929688 13.3040625 -1 14 C-1.33 14 -1.66 14 -2 14 C-2 11.03 -2 8.06 -2 5 C-8.27 5 -14.54 5 -21 5 C-21 4.67 -21 4.34 -21 4 C-19.73542969 3.96261719 -18.47085938 3.92523438 -17.16796875 3.88671875 C-15.5077827 3.82106167 -13.84762778 3.75461424 -12.1875 3.6875 C-11.35412109 3.66494141 -10.52074219 3.64238281 -9.66210938 3.61914062 C-8.85966797 3.58369141 -8.05722656 3.54824219 -7.23046875 3.51171875 C-6.49207764 3.48553467 -5.75368652 3.45935059 -4.99291992 3.43237305 C-2.52833609 2.89767037 -1.59947676 1.90034653 0 0 Z " fill="#D0F7FE" transform="translate(96,136)"/>
<path d="M0 0 C0.33 2.31 0.66 4.62 1 7 C-0.32 7 -1.64 7 -3 7 C-5.25 4 -5.25 4 -7 1 C-4.50935112 0.31292445 -2.62113708 0 0 0 Z " fill="#1378B1" transform="translate(41,135)"/>
<path d="M0 0 C2.64752004 2.57784846 4.94432065 4.91648098 7 8 C4.625 9.0625 4.625 9.0625 2 10 C1.34 9.67 0.68 9.34 0 9 C-0.85056945 5.44307323 -1.16909807 3.50729422 0 0 Z " fill="#298CC1" transform="translate(34,127)"/>
<path d="M0 0 C-3.17320782 3.53586014 -5.16743695 5.58578031 -10 6 C-9.814375 5.38125 -9.62875 4.7625 -9.4375 4.125 C-8.76313824 1.95839822 -8.76313824 1.95839822 -10 0 C-6.33694766 -0.74926071 -3.57644848 -1.2380014 0 0 Z " fill="#0270BA" transform="translate(130,128)"/>
<path d="M0 0 C3.33333333 3.33333333 6.66666667 6.66666667 10 10 C9.01 10.495 9.01 10.495 8 11 C8 10.34 8 9.68 8 9 C5.69 9.33 3.38 9.66 1 10 C-0.1577506 6.52674819 -0.06866652 3.63932552 0 0 Z " fill="#2A8ABE" transform="translate(41,135)"/>
<path d="M0 0 C0.99 0.33 1.98 0.66 3 1 C3.99 0.67 4.98 0.34 6 0 C8.00875442 0.27571139 10.01178687 0.60235737 12 1 C12 1.66 12 2.32 12 3 C7.545 3.495 7.545 3.495 3 4 C2.67 5.65 2.34 7.3 2 9 C1.34 8.67 0.68 8.34 0 8 C0 5.36 0 2.72 0 0 Z " fill="#09C0E0" transform="translate(104,102)"/>
<path d="M0 0 C15.12278761 4.83517699 15.12278761 4.83517699 21 10 C16.96002891 9.42286127 14.47042106 8.08225263 11 6 C8.38595699 4.93970174 5.75636515 3.93984456 3.109375 2.96484375 C1 2 1 2 0 0 Z " fill="#CBEEF8" transform="translate(109,25)"/>
<path d="M0 0 C7.42857143 1 7.42857143 1 11 2 C11 2.66 11 3.32 11 4 C11.66 4.33 12.32 4.66 13 5 C11.41590006 4.88512252 9.83271037 4.75765492 8.25 4.625 C7.36828125 4.55539063 6.4865625 4.48578125 5.578125 4.4140625 C3.00933618 4.00149945 1.24158985 3.28839043 -1 2 C-0.67 1.34 -0.34 0.68 0 0 Z " fill="#1790CF" transform="translate(105,20)"/>
<path d="M0 0 C0.66 0.33 1.32 0.66 2 1 C1.57847656 1.61488281 1.15695313 2.22976562 0.72265625 2.86328125 C0.17480469 3.67152344 -0.37304688 4.47976562 -0.9375 5.3125 C-1.48277344 6.11300781 -2.02804688 6.91351563 -2.58984375 7.73828125 C-4.13837326 10.0258143 -4.13837326 10.0258143 -5 13 C-4.34 13.33 -3.68 13.66 -3 14 C-4.32 13.67 -5.64 13.34 -7 13 C-7 11.35 -7 9.7 -7 8 C-6.34 8 -5.68 8 -5 8 C-4.9175 7.236875 -4.835 6.47375 -4.75 5.6875 C-3.85384206 2.47626739 -2.78388975 1.70625501 0 0 Z " fill="#1D75AD" transform="translate(129,114)"/>
<path d="M0 0 C0.33 0 0.66 0 1 0 C1.72790099 7.74810168 0.35178114 12.56558074 -4 19 C-4.99 18.67 -5.98 18.34 -7 18 C-6.21625 17.071875 -5.4325 16.14375 -4.625 15.1875 C-1.25979046 10.55437865 -0.67575278 5.57748194 0 0 Z " fill="#C7E8F3" transform="translate(148,88)"/>
<path d="M0 0 C1.12377697 3.30435084 0.89554742 5.0506862 -0.4375 8.25 C-0.72496094 8.95640625 -1.01242188 9.6628125 -1.30859375 10.390625 C-1.53675781 10.92171875 -1.76492187 11.4528125 -2 12 C-2.66 12 -3.32 12 -4 12 C-4.33 10.35 -4.66 8.7 -5 7 C-4.34 7 -3.68 7 -3 7 C-2.87625 6.030625 -2.7525 5.06125 -2.625 4.0625 C-2.41875 3.051875 -2.2125 2.04125 -2 1 C-1.34 0.67 -0.68 0.34 0 0 Z " fill="#1D7FB0" transform="translate(170,68)"/>
<path d="M0 0 C4.17858365 3.71429658 7.17846829 7.64185802 9 13 C8.67 13.66 8.34 14.32 8 15 C7.87625 14.071875 7.87625 14.071875 7.75 13.125 C7.18741541 10.81562433 7.18741541 10.81562433 4.9375 9.75 C4.298125 9.5025 3.65875 9.255 3 9 C3 7.68 3 6.36 3 5 C2.34 5 1.68 5 1 5 C0.67 3.35 0.34 1.7 0 0 Z " fill="#C8EAF5" transform="translate(145,49)"/>
<path d="M0 0 C8.415 3.96 8.415 3.96 17 8 C17 8.33 17 8.66 17 9 C15.02 9 13.04 9 11 9 C11 8.34 11 7.68 11 7 C10.46375 6.87625 9.9275 6.7525 9.375 6.625 C8.59125 6.41875 7.8075 6.2125 7 6 C5.948125 5.731875 4.89625 5.46375 3.8125 5.1875 C2.884375 4.795625 1.95625 4.40375 1 4 C0.67 2.68 0.34 1.36 0 0 Z " fill="#3082B0" transform="translate(54,147)"/>
<path d="M0 0 C0.33 0.99 0.66 1.98 1 3 C0.01 3.66 -0.98 4.32 -2 5 C-2.45375 5.86625 -2.9075 6.7325 -3.375 7.625 C-4.179375 8.800625 -4.179375 8.800625 -5 10 C-7.6875 10.3125 -7.6875 10.3125 -10 10 C-7.02911382 6.00073014 -3.87051275 3.07881696 0 0 Z " fill="#267DB2" transform="translate(145,111)"/>
<path d="M0 0 C0.99 0.33 1.98 0.66 3 1 C2.125 7.75 2.125 7.75 1 10 C-1.5722047 8.71389765 -2.00974907 7.66606019 -3 5 C-2.75 2.8125 -2.75 2.8125 -2 1 C-1.34 0.67 -0.68 0.34 0 0 Z " fill="#117EC3" transform="translate(149,108)"/>
<path d="M0 0 C-0.83144531 0.39832031 -0.83144531 0.39832031 -1.6796875 0.8046875 C-2.76636719 1.33449219 -2.76636719 1.33449219 -3.875 1.875 C-4.59429687 2.22304687 -5.31359375 2.57109375 -6.0546875 2.9296875 C-8.15135019 3.96557543 -8.15135019 3.96557543 -10 6 C-11.32 6 -12.64 6 -14 6 C-14.33 5.01 -14.66 4.02 -15 3 C-13.02 3 -11.04 3 -9 3 C-8.67 2.01 -8.34 1.02 -8 0 C-4.99093136 -1.24513185 -3.0590674 -0.84653438 0 0 Z " fill="#0760A2" transform="translate(112,163)"/>
<path d="M0 0 C6.27 0 12.54 0 19 0 C19 0.99 19 1.98 19 3 C16.58239124 2.88573491 14.16652782 2.75900339 11.75 2.625 C11.06808594 2.5940625 10.38617188 2.563125 9.68359375 2.53125 C5.75089375 2.30216068 3.61105794 1.80552897 0 0 Z " fill="#07609F" transform="translate(71,161)"/>
<path d="M0 0 C0.33 0 0.66 0 1 0 C1 1.65 1 3.3 1 5 C1.99 5.33 2.98 5.66 4 6 C4.6875 8.0625 4.6875 8.0625 5 10 C4.01 9.67 3.02 9.34 2 9 C1.67 8.34 1.34 7.68 1 7 C0.01 7.495 0.01 7.495 -1 8 C-2.0625 6.1875 -2.0625 6.1875 -3 4 C-2.67 3.01 -2.34 2.02 -2 1 C-1.67 1.33 -1.34 1.66 -1 2 C-0.67 1.34 -0.34 0.68 0 0 Z " fill="#2996CA" transform="translate(24,105)"/>
<path d="M0 0 C0.33 0 0.66 0 1 0 C1.37057967 4.9410623 0.70678361 9.76812563 -2 14 C-4.109375 14.73046875 -4.109375 14.73046875 -6 15 C-4 10 -2 5 0 0 Z " fill="#3A91BC" transform="translate(165,77)"/>
<path d="M0 0 C3.79979982 3.25697128 6.48005185 7.22568435 8 12 C7.60546875 14.25 7.60546875 14.25 7 16 C6.32591692 14.73308493 5.66099503 13.46129251 5 12.1875 C4.443125 11.12595703 4.443125 11.12595703 3.875 10.04296875 C3 8 3 8 3 5 C2.01 5 1.02 5 0 5 C0 3.35 0 1.7 0 0 Z " fill="#044A79" transform="translate(153,49)"/>
<path d="M0 0 C1.32 0.66 2.64 1.32 4 2 C3.67 2.66 3.34 3.32 3 4 C1.68 3.67 0.36 3.34 -1 3 C-1 3.66 -1 4.32 -1 5 C-2.98 5.33 -4.96 5.66 -7 6 C-4.74259377 3.66475218 -2.7194239 1.81294927 0 0 Z " fill="#2A7DB8" transform="translate(133,121)"/>
<path d="M0 0 C0 3.34238213 -0.48151073 5.03533048 -2 8 C-4.625 10.3125 -4.625 10.3125 -7 12 C-7.33 11.34 -7.66 10.68 -8 10 C-5.36 6.7 -2.72 3.4 0 0 Z " fill="#367FAE" transform="translate(110,116)"/>
<path d="M0 0 C0.66 0.33 1.32 0.66 2 1 C2.144375 1.66 2.28875 2.32 2.4375 3 C2.623125 3.66 2.80875 4.32 3 5 C3.99 5.33 4.98 5.66 6 6 C4.35 7.32 2.7 8.64 1 10 C1 9.34 1 8.68 1 8 C0.34 7.67 -0.32 7.34 -1 7 C-0.67 4.69 -0.34 2.38 0 0 Z " fill="#C2F2FC" transform="translate(108,107)"/>
<path d="M0 0 C0.33 0 0.66 0 1 0 C1.12375 0.7425 1.2475 1.485 1.375 2.25 C1.84787678 4.94132524 1.84787678 4.94132524 3.0625 6.875 C4.40862112 9.92620787 4.12652313 12.71039861 4 16 C0.29729514 10.4459427 -0.22186294 6.54495663 0 0 Z " fill="#155379" transform="translate(17,95)"/>
<path d="M0 0 C0.99 0.66 1.98 1.32 3 2 C2.34 2 1.68 2 1 2 C0.34 4.64 -0.32 7.28 -1 10 C-1.66 10 -2.32 10 -3 10 C-3 7.36 -3 4.72 -3 2 C-2.01 2 -1.02 2 0 2 C0 1.34 0 0.68 0 0 Z " fill="#3579A7" transform="translate(162,73)"/>
<path d="M0 0 C0.33 0.66 0.66 1.32 1 2 C-0.3125 4.625 -0.3125 4.625 -2 7 C-2.66 7 -3.32 7 -4 7 C-4 7.66 -4 8.32 -4 9 C-4.66 9 -5.32 9 -6 9 C-6 9.66 -6 10.32 -6 11 C-6.66 10.67 -7.32 10.34 -8 10 C-7.04367001 8.70684939 -6.08486149 7.41553147 -5.125 6.125 C-4.59132812 5.40570313 -4.05765625 4.68640625 -3.5078125 3.9453125 C-2 2 -2 2 0 0 Z " fill="#D4F4FC" transform="translate(44,43)"/>
<path d="M0 0 C0 0.66 0 1.32 0 2 C1.65 2.33 3.3 2.66 5 3 C2.30864154 4.34567923 0.86123106 3.77224621 -2.0625 3.1875 C-3.41021484 2.93033203 -3.41021484 2.93033203 -4.78515625 2.66796875 C-5.51605469 2.44753906 -6.24695312 2.22710937 -7 2 C-7.33 1.34 -7.66 0.68 -8 0 C-4.71023192 -1.09658936 -3.28696233 -0.79953138 0 0 Z " fill="#0E72B1" transform="translate(55,149)"/>
<path d="M0 0 C0.66 0 1.32 0 2 0 C2.19622241 4.21878192 1.80230168 7.17010894 0 11 C-2 8 -2 8 -1.6875 4.9375 C-1 2 -1 2 0 0 Z " fill="#B0E2F2" transform="translate(163,75)"/>
<path d="M0 0 C0.33 0.66 0.66 1.32 1 2 C0.06553465 4.03144641 -0.93224776 6.03533587 -2 8 C-2.66 8 -3.32 8 -4 8 C-4.33 9.32 -4.66 10.64 -5 12 C-6.32 12.33 -7.64 12.66 -9 13 C-8.60167969 12.48050781 -8.20335937 11.96101563 -7.79296875 11.42578125 C-4.97822677 7.72073158 -2.28614026 4.06424935 0 0 Z " fill="#358AB6" transform="translate(156,96)"/>
<path d="M0 0 C1.32 0.33 2.64 0.66 4 1 C3.68289062 1.53109375 3.36578125 2.0621875 3.0390625 2.609375 C1.7629651 5.54535848 1.58292979 8.06174329 1.375 11.25 C1.30023438 12.32765625 1.22546875 13.4053125 1.1484375 14.515625 C1.09945312 15.33546875 1.05046875 16.1553125 1 17 C0.67 17 0.34 17 0 17 C0 11.39 0 5.78 0 0 Z " fill="#12D1C9" transform="translate(77,43)"/>
<path d="M0 0 C3.3 0.33 6.6 0.66 10 1 C10 1.66 10 2.32 10 3 C10.99 3.33 11.98 3.66 13 4 C7.73946963 4.31563182 4.55426184 3.66590937 0 1 C0 0.67 0 0.34 0 0 Z " fill="#0C435F" transform="translate(102,16)"/>
<path d="M0 0 C0.57234375 0.37898437 1.1446875 0.75796875 1.734375 1.1484375 C0.3026134 1.84780952 -1.13629532 2.53256468 -2.578125 3.2109375 C-3.77888672 3.78521484 -3.77888672 3.78521484 -5.00390625 4.37109375 C-7.265625 5.1484375 -7.265625 5.1484375 -10.265625 4.1484375 C-9.0293082 3.25420836 -7.77590938 2.38355859 -6.515625 1.5234375 C-5.81953125 1.03617188 -5.1234375 0.54890625 -4.40625 0.046875 C-2.265625 -0.8515625 -2.265625 -0.8515625 0 0 Z " fill="#A5D1E5" transform="translate(124.265625,155.8515625)"/>
<path d="M0 0 C0 3 0 3 -1.75 4.82421875 C-2.4925 5.43910156 -3.235 6.05398437 -4 6.6875 C-4.7425 7.31011719 -5.485 7.93273437 -6.25 8.57421875 C-6.8275 9.04472656 -7.405 9.51523438 -8 10 C-8.66 9.67 -9.32 9.34 -10 9 C-6.7 6.03 -3.4 3.06 0 0 Z " fill="#154A69" transform="translate(154,134)"/>
<path d="M0 0 C0.66 0.33 1.32 0.66 2 1 C1.73445313 1.51949219 1.46890625 2.03898437 1.1953125 2.57421875 C-0.70698097 6.33020694 -2.51959705 10.05225879 -4 14 C-5.11511089 10.65466733 -4.93410412 10.11946434 -3.6875 7 C-3.42324219 6.319375 -3.15898437 5.63875 -2.88671875 4.9375 C-2 3 -2 3 0 0 Z " fill="#41A0C6" transform="translate(32,56)"/>
<path d="M0 0 C2.475 0.495 2.475 0.495 5 1 C5.33 2.65 5.66 4.3 6 6 C5.01 6 4.02 6 3 6 C0.8614515 3.8614515 0.57344937 2.86724686 0 0 Z " fill="#0D7DC3" transform="translate(145,44)"/>
<path d="M0 0 C0.66 0 1.32 0 2 0 C1.67 1.65 1.34 3.3 1 5 C-0.98 5.66 -2.96 6.32 -5 7 C-4.67 6.01 -4.34 5.02 -4 4 C-3.34 4 -2.68 4 -2 4 C-2 3.34 -2 2.68 -2 2 C-1.34 2 -0.68 2 0 2 C0 1.34 0 0.68 0 0 Z " fill="#35AFE3" transform="translate(41,34)"/>
<path d="M0 0 C0.53625 0.226875 1.0725 0.45375 1.625 0.6875 C0.305 1.0175 -1.015 1.3475 -2.375 1.6875 C-2.375 2.3475 -2.375 3.0075 -2.375 3.6875 C-6.83 4.1825 -6.83 4.1825 -11.375 4.6875 C-3.62774725 -0.47733516 -3.62774725 -0.47733516 0 0 Z " fill="#C9EFF9" transform="translate(72.375,26.3125)"/>
<path d="M0 0 C3 1.8125 3 1.8125 6 4 C6 4.99 6 5.98 6 7 C3.5625 6.3125 3.5625 6.3125 1 5 C0.1875 2.375 0.1875 2.375 0 0 Z " fill="#0A598A" transform="translate(139,33)"/>
<path d="M0 0 C1.44010481 0.25662245 2.8770687 0.53090821 4.3125 0.8125 C5.11300781 0.96332031 5.91351563 1.11414063 6.73828125 1.26953125 C9.23445587 2.07572236 10.32422106 3.02052002 12 5 C7.43545749 4.45660208 4.0271824 3.20536179 0 1 C0 0.67 0 0.34 0 0 Z " fill="#054979" transform="translate(59,156)"/>
<path d="M0 0 C0.99 0 1.98 0 3 0 C3.98120464 3.05263664 3.98120464 4.94736336 3 8 C0.37613513 4.93882432 0 4.26826873 0 0 Z " fill="#1372AA" transform="translate(30,128)"/>
<path d="M0 0 C1.32 0.33 2.64 0.66 4 1 C3.360625 1.2475 2.72125 1.495 2.0625 1.75 C-0.19060573 2.80148727 -0.19060573 2.80148727 -0.625 5.0625 C-0.74875 5.701875 -0.8725 6.34125 -1 7 C-1.99 7.495 -1.99 7.495 -3 8 C-2.45276317 4.62537285 -1.9451 2.91765 0 0 Z " fill="#076EB1" transform="translate(111,116)"/>
<path d="M0 0 C6.52307692 1.47692308 6.52307692 1.47692308 8.9375 4.125 C9.288125 4.74375 9.63875 5.3625 10 6 C6.62972148 6 5.93297304 5.50175992 3.3125 3.5625 C2.68988281 3.11003906 2.06726563 2.65757813 1.42578125 2.19140625 C0.95527344 1.79824219 0.48476562 1.40507813 0 1 C0 0.67 0 0.34 0 0 Z " fill="#358BBD" transform="translate(127,32)"/>
<path d="M0 0 C-1.65 1.65 -3.3 3.3 -5 5 C-5.66 4.34 -6.32 3.68 -7 3 C-7 2.34 -7 1.68 -7 1 C-4.53721199 -0.231394 -2.7204945 -0.07159196 0 0 Z " fill="#0C71B6" transform="translate(149,135)"/>
<path d="M0 0 C-0.33 1.32 -0.66 2.64 -1 4 C-2.32 4 -3.64 4 -5 4 C-5 4.66 -5 5.32 -5 6 C-5.66 5.67 -6.32 5.34 -7 5 C-7 4.34 -7 3.68 -7 3 C-2.61538462 0 -2.61538462 0 0 0 Z " fill="#3BB5EA" transform="translate(54,26)"/>
<path d="M0 0 C0.66 0 1.32 0 2 0 C1.75 2.375 1.75 2.375 1 5 C-1.0625 6.3125 -1.0625 6.3125 -3 7 C-3 6.01 -3 5.02 -3 4 C-2.34 4 -1.68 4 -1 4 C-0.67 2.68 -0.34 1.36 0 0 Z " fill="#319FCE" transform="translate(58,27)"/>
<path d="M0 0 C1.32 0.33 2.64 0.66 4 1 C1.03 2.65 -1.94 4.3 -5 6 C-5 5.01 -5 4.02 -5 3 C-3.35 2.67 -1.7 2.34 0 2 C0 1.34 0 0.68 0 0 Z " fill="#2875AB" transform="translate(131,147)"/>
<path d="M0 0 C0.99 0.33 1.98 0.66 3 1 C3.33 2.65 3.66 4.3 4 6 C3.01 6.495 3.01 6.495 2 7 C0 4 0 4 0 0 Z " fill="#168FCE" transform="translate(29,123)"/>
<path d="M0 0 C0.33 0.66 0.66 1.32 1 2 C0.67 2.99 0.34 3.98 0 5 C0.66 5.33 1.32 5.66 2 6 C0.35 6.66 -1.3 7.32 -3 8 C-2.45276317 4.62537285 -1.9451 2.91765 0 0 Z " fill="#AFE1F4" transform="translate(127,119)"/>
<path d="M0 0 C-1.39332574 3.36720387 -2.9789286 4.9859524 -6 7 C-6 5.68 -6 4.36 -6 3 C-2.78571429 0 -2.78571429 0 0 0 Z " fill="#D0F3FB" transform="translate(124,102)"/>
<path d="M0 0 C3.36720387 1.39332574 4.9859524 2.9789286 7 6 C5.68 6 4.36 6 3 6 C3 5.01 3 4.02 3 3 C2.01 3 1.02 3 0 3 C0 2.01 0 1.02 0 0 Z " fill="#C7EAF6" transform="translate(135,39)"/>
<path d="M0 0 C1.32 0.33 2.64 0.66 4 1 C2.37660195 2.70884005 0.70680947 4.37446717 -1 6 C-1.66 6 -2.32 6 -3 6 C-3 5.01 -3 4.02 -3 3 C-2.34 3 -1.68 3 -1 3 C-0.67 2.01 -0.34 1.02 0 0 Z " fill="#2674B0" transform="translate(116,156)"/>
<path d="M0 0 C0.99 0 1.98 0 3 0 C2.75 1.875 2.75 1.875 2 4 C-0.0625 5.25 -0.0625 5.25 -2 6 C-2 5.01 -2 4.02 -2 3 C-1.34 3 -0.68 3 0 3 C0 2.01 0 1.02 0 0 Z " fill="#DAF4F8" transform="translate(140,111)"/>
<path d="M0 0 C1.43088528 2.86177057 0.59991697 4.93375773 0 8 C-0.33 7.34 -0.66 6.68 -1 6 C-2.32 6.33 -3.64 6.66 -5 7 C-3.35 4.69 -1.7 2.38 0 0 Z " fill="#408FBC" transform="translate(147,85)"/>
<path d="M0 0 C0 0.99 0 1.98 0 3 C-2.5 5.1875 -2.5 5.1875 -5 7 C-5.66 6.67 -6.32 6.34 -7 6 C-4.69 4.02 -2.38 2.04 0 0 Z " fill="#CFF2FC" transform="translate(52,36)"/>
<path d="" fill="#00FFFF" transform="translate(0,0)"/>
<path d="" fill="#00FFFF" transform="translate(0,0)"/>
<path d="" fill="#00FFFF" transform="translate(0,0)"/>
</svg>
